<mxfile host="app.diagrams.net" modified="2023-09-21T10:58:46.261Z" agent="Mozilla/5.0 (Windows NT 10.0; Win64; x64) AppleWebKit/537.36 (KHTML, like Gecko) Chrome/116.0.0.0 Safari/537.36 OPR/102.0.0.0" etag="CN9-ScWw3PHeHk2l2o58" version="21.8.0" type="github">
  <diagram name="Strona-1" id="vzDeasuwt3uQLDoyi-kc">
    <mxGraphModel dx="1380" dy="741" grid="1" gridSize="10" guides="1" tooltips="1" connect="1" arrows="1" fold="1" page="1" pageScale="1" pageWidth="827" pageHeight="1169" math="0" shadow="0">
      <root>
        <mxCell id="0" />
        <mxCell id="1" parent="0" />
        <mxCell id="1jarj3irUBRzqBKBzVCS-1" value="Vertical Container" style="swimlane;whiteSpace=wrap;html=1;" vertex="1" parent="1">
          <mxGeometry x="80" y="40" width="680" height="440" as="geometry" />
        </mxCell>
        <mxCell id="1jarj3irUBRzqBKBzVCS-2" value="" style="rounded=1;whiteSpace=wrap;html=1;" vertex="1" parent="1jarj3irUBRzqBKBzVCS-1">
          <mxGeometry x="40" y="40" width="160" height="360" as="geometry" />
        </mxCell>
        <mxCell id="1jarj3irUBRzqBKBzVCS-3" value="" style="rounded=1;whiteSpace=wrap;html=1;" vertex="1" parent="1jarj3irUBRzqBKBzVCS-1">
          <mxGeometry x="280" y="40" width="360" height="360" as="geometry" />
        </mxCell>
        <mxCell id="1jarj3irUBRzqBKBzVCS-4" value="Tasks" style="text;html=1;strokeColor=none;fillColor=none;align=center;verticalAlign=middle;whiteSpace=wrap;rounded=0;fontSize=22;" vertex="1" parent="1jarj3irUBRzqBKBzVCS-1">
          <mxGeometry x="65" y="50" width="110" height="30" as="geometry" />
        </mxCell>
        <mxCell id="1jarj3irUBRzqBKBzVCS-5" value="" style="rounded=0;whiteSpace=wrap;html=1;" vertex="1" parent="1jarj3irUBRzqBKBzVCS-1">
          <mxGeometry x="60" y="90" width="120" height="60" as="geometry" />
        </mxCell>
        <mxCell id="1jarj3irUBRzqBKBzVCS-6" value="Task1" style="text;html=1;strokeColor=none;fillColor=none;align=center;verticalAlign=middle;whiteSpace=wrap;rounded=0;" vertex="1" parent="1jarj3irUBRzqBKBzVCS-1">
          <mxGeometry x="80" y="95" width="60" height="30" as="geometry" />
        </mxCell>
        <mxCell id="1jarj3irUBRzqBKBzVCS-7" value="" style="ellipse;whiteSpace=wrap;html=1;aspect=fixed;" vertex="1" parent="1jarj3irUBRzqBKBzVCS-1">
          <mxGeometry x="65" y="100" width="20" height="20" as="geometry" />
        </mxCell>
        <mxCell id="1jarj3irUBRzqBKBzVCS-8" value="Due:&amp;nbsp; 23/09" style="text;html=1;strokeColor=none;fillColor=none;align=center;verticalAlign=middle;whiteSpace=wrap;rounded=0;" vertex="1" parent="1jarj3irUBRzqBKBzVCS-1">
          <mxGeometry x="65" y="120" width="70" height="30" as="geometry" />
        </mxCell>
        <mxCell id="1jarj3irUBRzqBKBzVCS-9" value="" style="rounded=0;whiteSpace=wrap;html=1;" vertex="1" parent="1jarj3irUBRzqBKBzVCS-1">
          <mxGeometry x="60" y="160" width="120" height="60" as="geometry" />
        </mxCell>
        <mxCell id="1jarj3irUBRzqBKBzVCS-10" value="Task1" style="text;html=1;strokeColor=none;fillColor=none;align=center;verticalAlign=middle;whiteSpace=wrap;rounded=0;" vertex="1" parent="1jarj3irUBRzqBKBzVCS-1">
          <mxGeometry x="80" y="165" width="60" height="30" as="geometry" />
        </mxCell>
        <mxCell id="1jarj3irUBRzqBKBzVCS-11" value="" style="ellipse;whiteSpace=wrap;html=1;aspect=fixed;" vertex="1" parent="1jarj3irUBRzqBKBzVCS-1">
          <mxGeometry x="65" y="170" width="20" height="20" as="geometry" />
        </mxCell>
        <mxCell id="1jarj3irUBRzqBKBzVCS-12" value="Due:&amp;nbsp; 23/09" style="text;html=1;strokeColor=none;fillColor=none;align=center;verticalAlign=middle;whiteSpace=wrap;rounded=0;" vertex="1" parent="1jarj3irUBRzqBKBzVCS-1">
          <mxGeometry x="65" y="190" width="70" height="30" as="geometry" />
        </mxCell>
        <mxCell id="1jarj3irUBRzqBKBzVCS-13" value="" style="rounded=0;whiteSpace=wrap;html=1;" vertex="1" parent="1jarj3irUBRzqBKBzVCS-1">
          <mxGeometry x="60" y="230" width="120" height="60" as="geometry" />
        </mxCell>
        <mxCell id="1jarj3irUBRzqBKBzVCS-14" value="Task1" style="text;html=1;strokeColor=none;fillColor=none;align=center;verticalAlign=middle;whiteSpace=wrap;rounded=0;" vertex="1" parent="1jarj3irUBRzqBKBzVCS-1">
          <mxGeometry x="80" y="235" width="60" height="30" as="geometry" />
        </mxCell>
        <mxCell id="1jarj3irUBRzqBKBzVCS-15" value="" style="ellipse;whiteSpace=wrap;html=1;aspect=fixed;" vertex="1" parent="1jarj3irUBRzqBKBzVCS-1">
          <mxGeometry x="65" y="240" width="20" height="20" as="geometry" />
        </mxCell>
        <mxCell id="1jarj3irUBRzqBKBzVCS-16" value="Due:&amp;nbsp; 23/09" style="text;html=1;strokeColor=none;fillColor=none;align=center;verticalAlign=middle;whiteSpace=wrap;rounded=0;" vertex="1" parent="1jarj3irUBRzqBKBzVCS-1">
          <mxGeometry x="65" y="260" width="70" height="30" as="geometry" />
        </mxCell>
        <mxCell id="1jarj3irUBRzqBKBzVCS-17" value="" style="rounded=0;whiteSpace=wrap;html=1;" vertex="1" parent="1jarj3irUBRzqBKBzVCS-1">
          <mxGeometry x="60" y="300" width="120" height="60" as="geometry" />
        </mxCell>
        <mxCell id="1jarj3irUBRzqBKBzVCS-18" value="Task1" style="text;html=1;strokeColor=none;fillColor=none;align=center;verticalAlign=middle;whiteSpace=wrap;rounded=0;" vertex="1" parent="1jarj3irUBRzqBKBzVCS-1">
          <mxGeometry x="80" y="305" width="60" height="30" as="geometry" />
        </mxCell>
        <mxCell id="1jarj3irUBRzqBKBzVCS-19" value="" style="ellipse;whiteSpace=wrap;html=1;aspect=fixed;" vertex="1" parent="1jarj3irUBRzqBKBzVCS-1">
          <mxGeometry x="65" y="310" width="20" height="20" as="geometry" />
        </mxCell>
        <mxCell id="1jarj3irUBRzqBKBzVCS-20" value="Due:&amp;nbsp; 23/09" style="text;html=1;strokeColor=none;fillColor=none;align=center;verticalAlign=middle;whiteSpace=wrap;rounded=0;" vertex="1" parent="1jarj3irUBRzqBKBzVCS-1">
          <mxGeometry x="65" y="330" width="70" height="30" as="geometry" />
        </mxCell>
        <mxCell id="1jarj3irUBRzqBKBzVCS-21" value="" style="rounded=0;whiteSpace=wrap;html=1;" vertex="1" parent="1jarj3irUBRzqBKBzVCS-1">
          <mxGeometry x="60" y="370" width="120" height="60" as="geometry" />
        </mxCell>
        <mxCell id="1jarj3irUBRzqBKBzVCS-22" value="Task1" style="text;html=1;strokeColor=none;fillColor=none;align=center;verticalAlign=middle;whiteSpace=wrap;rounded=0;" vertex="1" parent="1jarj3irUBRzqBKBzVCS-1">
          <mxGeometry x="80" y="375" width="60" height="30" as="geometry" />
        </mxCell>
        <mxCell id="1jarj3irUBRzqBKBzVCS-23" value="" style="ellipse;whiteSpace=wrap;html=1;aspect=fixed;" vertex="1" parent="1jarj3irUBRzqBKBzVCS-1">
          <mxGeometry x="65" y="380" width="20" height="20" as="geometry" />
        </mxCell>
        <mxCell id="1jarj3irUBRzqBKBzVCS-24" value="Due:&amp;nbsp; 23/09" style="text;html=1;strokeColor=none;fillColor=none;align=center;verticalAlign=middle;whiteSpace=wrap;rounded=0;" vertex="1" parent="1jarj3irUBRzqBKBzVCS-1">
          <mxGeometry x="65" y="400" width="70" height="30" as="geometry" />
        </mxCell>
        <mxCell id="1jarj3irUBRzqBKBzVCS-27" value="" style="ellipse;whiteSpace=wrap;html=1;aspect=fixed;" vertex="1" parent="1jarj3irUBRzqBKBzVCS-1">
          <mxGeometry x="300" y="75" width="35" height="35" as="geometry" />
        </mxCell>
        <mxCell id="1jarj3irUBRzqBKBzVCS-28" value="Task1" style="text;html=1;strokeColor=none;fillColor=none;align=center;verticalAlign=middle;whiteSpace=wrap;rounded=0;fontSize=22;fontStyle=1" vertex="1" parent="1jarj3irUBRzqBKBzVCS-1">
          <mxGeometry x="320" y="62.5" width="120" height="60" as="geometry" />
        </mxCell>
        <mxCell id="1jarj3irUBRzqBKBzVCS-29" value="Description:" style="text;html=1;strokeColor=none;fillColor=none;align=center;verticalAlign=middle;whiteSpace=wrap;rounded=0;fontSize=16;fontStyle=1" vertex="1" parent="1jarj3irUBRzqBKBzVCS-1">
          <mxGeometry x="280" y="160" width="130" height="30" as="geometry" />
        </mxCell>
        <mxCell id="1jarj3irUBRzqBKBzVCS-30" value="&lt;h1&gt;&lt;br&gt;&lt;/h1&gt;&lt;p&gt;Lorem ipsum dolor sit amet, consectetur adipisicing elit, sed do eiusmod tempor incididunt ut labore et dolore magna aliqua.&lt;/p&gt;" style="text;html=1;strokeColor=none;fillColor=none;spacing=5;spacingTop=-20;whiteSpace=wrap;overflow=hidden;rounded=0;" vertex="1" parent="1jarj3irUBRzqBKBzVCS-1">
          <mxGeometry x="290" y="140" width="340" height="100" as="geometry" />
        </mxCell>
        <mxCell id="1jarj3irUBRzqBKBzVCS-31" value="&lt;font style=&quot;font-size: 16px;&quot;&gt;&lt;b&gt;Due:&lt;/b&gt;&lt;/font&gt;" style="text;html=1;strokeColor=none;fillColor=none;align=center;verticalAlign=middle;whiteSpace=wrap;rounded=0;" vertex="1" parent="1jarj3irUBRzqBKBzVCS-1">
          <mxGeometry x="267.5" y="122.5" width="92.5" height="30" as="geometry" />
        </mxCell>
        <mxCell id="1jarj3irUBRzqBKBzVCS-32" value="12,12,2023" style="text;html=1;strokeColor=none;fillColor=none;align=center;verticalAlign=middle;whiteSpace=wrap;rounded=0;" vertex="1" parent="1jarj3irUBRzqBKBzVCS-1">
          <mxGeometry x="360" y="125" width="60" height="30" as="geometry" />
        </mxCell>
        <mxCell id="1jarj3irUBRzqBKBzVCS-33" value="20:00" style="text;html=1;strokeColor=none;fillColor=none;align=center;verticalAlign=middle;whiteSpace=wrap;rounded=0;" vertex="1" parent="1jarj3irUBRzqBKBzVCS-1">
          <mxGeometry x="420" y="125" width="60" height="30" as="geometry" />
        </mxCell>
        <mxCell id="1jarj3irUBRzqBKBzVCS-34" value="&lt;font style=&quot;font-size: 16px;&quot;&gt;&lt;b&gt;Sub Tasks:&lt;/b&gt;&lt;/font&gt;" style="text;html=1;strokeColor=none;fillColor=none;align=center;verticalAlign=middle;whiteSpace=wrap;rounded=0;" vertex="1" parent="1jarj3irUBRzqBKBzVCS-1">
          <mxGeometry x="280" y="245" width="110" height="30" as="geometry" />
        </mxCell>
        <mxCell id="1jarj3irUBRzqBKBzVCS-35" value="" style="rounded=0;whiteSpace=wrap;html=1;" vertex="1" parent="1jarj3irUBRzqBKBzVCS-1">
          <mxGeometry x="300" y="280" width="120" height="60" as="geometry" />
        </mxCell>
        <mxCell id="1jarj3irUBRzqBKBzVCS-36" value="Task1" style="text;html=1;strokeColor=none;fillColor=none;align=center;verticalAlign=middle;whiteSpace=wrap;rounded=0;" vertex="1" parent="1jarj3irUBRzqBKBzVCS-1">
          <mxGeometry x="320" y="285" width="60" height="30" as="geometry" />
        </mxCell>
        <mxCell id="1jarj3irUBRzqBKBzVCS-37" value="" style="ellipse;whiteSpace=wrap;html=1;aspect=fixed;" vertex="1" parent="1jarj3irUBRzqBKBzVCS-1">
          <mxGeometry x="305" y="290" width="20" height="20" as="geometry" />
        </mxCell>
        <mxCell id="1jarj3irUBRzqBKBzVCS-38" value="Due:&amp;nbsp; 23/09" style="text;html=1;strokeColor=none;fillColor=none;align=center;verticalAlign=middle;whiteSpace=wrap;rounded=0;" vertex="1" parent="1jarj3irUBRzqBKBzVCS-1">
          <mxGeometry x="305" y="310" width="70" height="30" as="geometry" />
        </mxCell>
        <mxCell id="1jarj3irUBRzqBKBzVCS-39" value="" style="rounded=0;whiteSpace=wrap;html=1;" vertex="1" parent="1jarj3irUBRzqBKBzVCS-1">
          <mxGeometry x="440" y="280" width="120" height="60" as="geometry" />
        </mxCell>
        <mxCell id="1jarj3irUBRzqBKBzVCS-40" value="Task1" style="text;html=1;strokeColor=none;fillColor=none;align=center;verticalAlign=middle;whiteSpace=wrap;rounded=0;" vertex="1" parent="1jarj3irUBRzqBKBzVCS-1">
          <mxGeometry x="460" y="285" width="60" height="30" as="geometry" />
        </mxCell>
        <mxCell id="1jarj3irUBRzqBKBzVCS-41" value="" style="ellipse;whiteSpace=wrap;html=1;aspect=fixed;" vertex="1" parent="1jarj3irUBRzqBKBzVCS-1">
          <mxGeometry x="445" y="290" width="20" height="20" as="geometry" />
        </mxCell>
        <mxCell id="1jarj3irUBRzqBKBzVCS-42" value="Due:&amp;nbsp; 23/09" style="text;html=1;strokeColor=none;fillColor=none;align=center;verticalAlign=middle;whiteSpace=wrap;rounded=0;" vertex="1" parent="1jarj3irUBRzqBKBzVCS-1">
          <mxGeometry x="445" y="310" width="70" height="30" as="geometry" />
        </mxCell>
      </root>
    </mxGraphModel>
  </diagram>
</mxfile>
